<?xml version="1.0" standalone="no"?>
<!DOCTYPE svg PUBLIC "-//W3C//DTD SVG 20010904//EN"
 "http://www.w3.org/TR/2001/REC-SVG-20010904/DTD/svg10.dtd">
<svg version="1.0" xmlns="http://www.w3.org/2000/svg"
 width="1280.000000pt" height="1280.000000pt" viewBox="0 0 1280.000000 1280.000000"
 preserveAspectRatio="xMidYMid meet">
<metadata>
Created by potrace 1.11, written by Peter Selinger 2001-2013
</metadata>
<g transform="translate(0.000000,1280.000000) scale(0.100000,-0.100000)"
fill="#000000" stroke="none">
<path d="M8895 10304 c-72 -97 -135 -181 -140 -187 -6 -7 -82 -109 -170 -227
-88 -118 -277 -372 -420 -565 -386 -517 -550 -739 -557 -750 -4 -7 256 -10
774 -9 606 1 794 -1 846 -12 116 -22 259 -78 314 -122 104 -83 213 -234 243
-339 16 -54 22 -1133 25 -4685 l1 -1098 1489 0 1489 0 1 1383 c1 760 2 2469 3
3797 l2 2415 -33 94 c-42 120 -86 192 -164 270 -112 111 -244 181 -380 200
-36 6 -735 10 -1628 10 l-1565 1 -130 -176z"/>
<path d="M2658 10465 c-2 -1 -46 -5 -98 -9 -125 -9 -149 -12 -320 -46 -130
-26 -354 -90 -435 -125 -16 -7 -59 -25 -95 -40 -267 -111 -584 -316 -789 -510
-47 -44 -190 -189 -216 -219 -101 -114 -152 -182 -251 -326 -50 -72 -163 -268
-196 -340 -71 -152 -91 -202 -127 -306 -39 -119 -75 -248 -86 -314 -3 -19 -10
-60 -16 -90 -5 -30 -13 -86 -17 -125 -10 -95 -9 -3253 1 -3335 4 -36 9 -82 12
-103 14 -127 61 -324 116 -487 134 -401 463 -864 807 -1138 94 -75 289 -208
373 -256 297 -167 579 -277 854 -331 68 -13 143 -25 190 -31 28 -3 61 -9 75
-12 14 -4 1369 -8 3011 -9 l2986 -3 -1 2447 -1 2448 -1490 0 -1490 0 -3 -1215
c-1 -706 -6 -1216 -11 -1219 -14 -9 -1819 -6 -1871 3 -298 49 -532 267 -574
536 -7 41 -8 2676 -1 2733 14 123 92 312 154 373 59 58 178 117 281 140 19 4
651 8 1405 10 1256 2 1371 4 1380 19 11 17 317 432 335 452 5 6 22 29 37 51
16 21 62 84 103 139 41 55 84 113 95 128 11 15 34 45 51 68 18 23 145 195 284
382 293 394 317 427 328 440 11 14 114 154 140 192 l23 32 -2475 0 c-1361 -1
-2476 -2 -2478 -4z"/>
</g>
</svg>
